<svg width="84" height="59" fill="none" xmlns="http://www.w3.org/2000/svg"><path d="M13.67 58.644C6.13 58.644 0 52.514 0 44.974c0-7.538 6.13-13.669 13.67-13.669 7.538 0 13.669 6.13 13.669 13.67 0 7.58-6.13 13.669-13.67 13.669z" fill="#fff"/><path d="M13.67 58.644C6.13 58.644 0 52.514 0 44.974c0-7.538 6.13-13.669 13.67-13.669 7.538 0 13.669 6.13 13.669 13.67 0 7.58-6.13 13.669-13.67 13.669zM45.98 1.522L31.15 25.754c-.414.704.041 1.574.828 1.574h29.659c.787 0 1.242-.911.828-1.574L47.636 1.522c-.414-.621-1.284-.621-1.657 0zM27.049 5.623L21.705.28a1.026 1.026 0 00-1.408 0l-5.882 5.882c-.373.372-1.036.372-1.408 0L7.124.28c-.372-.373-1.035-.373-1.408 0L.373 5.623C0 5.996 0 6.66.373 7.031l5.882 5.883c.372.372.372 1.035 0 1.408L.373 20.204a1.026 1.026 0 000 1.408l5.343 5.344c.373.372 1.036.372 1.408 0l5.883-5.882c.372-.373 1.035-.373 1.408 0l5.882 5.882c.373.372 1.035.372 1.408 0l5.344-5.344a1.026 1.026 0 000-1.408l-5.882-5.882c-.373-.373-.373-1.036 0-1.408l5.882-5.883c.414-.372.414-.994 0-1.408zM33.76 40.75v1.739h3.023v1.201h-3.024v2.361h-1.491v-6.503h4.888v1.201h-3.397zm5.426 4.639c-.497-.498-.787-1.243-.787-2.196v-3.645h1.491v3.562c0 1.16.497 1.74 1.45 1.74.455 0 .828-.124 1.077-.414.248-.29.373-.704.373-1.326v-3.562h1.49v3.645c0 .953-.248 1.699-.786 2.196-.497.497-1.243.787-2.154.787-.912 0-1.657-.29-2.154-.787zm8.077-4.599h-2.071v-1.242h5.633v1.243h-2.07v5.26h-1.492v-5.26zm5.261 4.599c-.498-.498-.787-1.243-.787-2.196v-3.645h1.49v3.562c0 1.16.498 1.74 1.45 1.74.456 0 .829-.124 1.078-.414.248-.29.372-.704.372-1.326v-3.562h1.492v3.645c0 .953-.249 1.699-.788 2.196-.497.497-1.242.787-2.153.787-.912 0-1.616-.29-2.154-.787zm10.976.663l-1.242-1.823H60.85v1.823h-1.492V39.59h2.817c.58 0 1.077.083 1.491.29.415.207.746.455.995.828.207.331.33.787.33 1.243 0 .497-.123.911-.33 1.242-.25.332-.58.622-.995.788l1.45 2.07h-1.615zm-.372-4.971c-.249-.207-.58-.29-1.036-.29H60.85v2.278h1.242c.456 0 .787-.083 1.036-.29.248-.207.331-.455.331-.828.042-.414-.083-.663-.331-.87zm8.367 3.769v1.201h-5.012v-6.503h4.888v1.201h-3.397v1.409h2.983v1.2h-2.983v1.492h3.521zm-34.96 11.806H33.51l-.58 1.408h-1.533l2.9-6.462h1.491l2.9 6.462h-1.575l-.58-1.408zm-.456-1.119l-1.036-2.485-1.035 2.485h2.07zm4.764 2.196A3.156 3.156 0 0139.6 56.53a3.4 3.4 0 01-.456-1.74c0-.62.166-1.2.456-1.74.29-.496.745-.91 1.243-1.2.538-.29 1.118-.415 1.78-.415.58 0 1.078.083 1.533.29a3.42 3.42 0 011.16.87l-.953.87c-.455-.497-.994-.745-1.615-.745-.414 0-.746.082-1.077.248-.331.166-.58.414-.745.746a2.293 2.293 0 00-.25 1.077c0 .414.084.745.25 1.077.165.331.414.58.745.745a2.29 2.29 0 001.077.249c.663 0 1.201-.249 1.616-.787l.952.87c-.29.372-.704.662-1.16.87-.455.207-.952.29-1.532.29a3.297 3.297 0 01-1.781-.373zm9.899-1.077H47.72l-.58 1.408h-1.533l2.9-6.462h1.49l2.9 6.462h-1.574l-.58-1.408zm-.455-1.119l-1.036-2.485-1.035 2.485h2.07zm3.563-3.977h2.94c.704 0 1.326.125 1.864.415.539.248.953.663 1.243 1.118.29.497.456 1.036.456 1.698 0 .663-.166 1.202-.456 1.699a2.72 2.72 0 01-1.243 1.118 4.406 4.406 0 01-1.864.415h-2.94V51.56zm2.857 5.261c.663 0 1.16-.165 1.533-.538s.58-.87.58-1.45c0-.621-.207-1.118-.58-1.45-.373-.373-.911-.538-1.533-.538H55.34v4.018h1.367v-.042zm10.066.042v1.2h-5.012V51.56h4.888v1.202h-3.397v1.408h3.024v1.16h-3.024v1.533h3.521zm7.373 1.201V54.17l-1.905 3.19h-.663l-1.905-3.107v3.81h-1.409V51.56h1.243l2.402 4.018 2.403-4.018h1.243v6.504h-1.409zm6.338-2.32v2.32h-1.491v-2.32l-2.527-4.184h1.615l1.74 2.9 1.698-2.9h1.492l-2.527 4.184z" fill="#fff"/></svg>