<svg version="1.0" xmlns="http://www.w3.org/2000/svg" width="252" height="252" viewBox="0 0 189 189"><path d="M108.8 3.6c-3.2.7-7.7 2.3-10 3.5-4.2 2.2-9.2 2.2-19.5.3-4.7-.9-4.4 1.9.7 6.6l3.9 3.6-13.2 13.2C57.6 43.9 57.5 44 53.7 43.3c-6-.9-12.2 2.1-20.5 10.1S22.5 64.9 21.6 70.2c-1.4 7.8 3.9 17.4 11.1 20.4 3.8 1.6 11 1.8 15 .4 2.5-.9 2.3-.6-1.6 3-4.2 3.8-9.2 6-13.9 6-3.4 0-9.3-2.7-12.4-5.7-1.5-1.5-3-2.4-3.4-2.1-.3.3-1.2 4.5-2 9.3C8.8 133.8 33.5 163 66.5 163c15 0 26.1-4.7 38.2-16.3l8.3-7.9 13.2-.2c15-.1 17.6-1 23.2-7.9 2.8-3.5 3.1-4.5 3.1-11.1 0-6.4-.3-7.7-2.7-10.8l-2.7-3.6 9.4-10C170 80.7 174.4 70.9 174.3 55c0-12.8-3.3-22.6-10.9-32.6-2.7-3.5-3.3-4.9-2.3-5.3 2-.6 8.9-7.7 8.9-9.1 0-.8-1-1-3.2-.6-1.8.3-6.5.9-10.5 1.2-6.4.6-7.9.4-13.5-1.9-11.7-4.9-22.6-5.9-34-3.1zm11.1 16.2l3.9 2 4.8-2.4c2.6-1.3 5.9-2.4 7.3-2.4 11.1 0 23.9 11.9 28.2 26.2 6.2 20.3-2.9 41.1-22 50.6-7.2 3.6-7.9 3.7-18.1 3.7-10.2 0-10.9-.1-18.2-3.8-8.9-4.4-16.1-11.6-20.5-20.5-2.5-5.2-2.8-6.7-2.8-17.2 0-10.4.3-12 2.7-17.2 1.5-3.2 3.9-7.4 5.4-9.3 3.1-4.1 11.2-10.3 15.2-11.6 3.8-1.2 9.6-.4 14.1 1.9z"/><path d="M100.8 33.7c-1.3.3-1.5 1.2-1.1 3.9.7 4.2-1 6.4-4.8 6.4-3.3 0-3.5.9-1.4 5 3.3 6.4 10.9 8 16.4 3.4 3.9-3.2 4.9-8 2.6-12.7-2-4.4-7.4-7.1-11.7-6zm41.5 0c-1.8.4-2.1.9-1.7 3.2.8 4-1.1 7.1-4.2 7.1-2.3 0-2.5.3-2 2.7 1.1 4.4 6 8.3 10.5 8.3 6.7 0 12.2-6.9 10.6-13.3-1.3-5.1-7.7-9-13.2-8zm-23.9 17.4c-2.5 1.3-5.4 5.9-5.4 8.8 0 1.9 3.9 5.5 8.8 8 2 1.1 2.9.8 6.8-1.6 2.4-1.5 4.7-3.8 5-5.1.8-2.9-1.3-7.8-4-9.7-2.3-1.7-8.1-1.9-11.2-.4z"/></svg>