<svg width="131" height="130" fill="none" xmlns="http://www.w3.org/2000/svg"><path d="M127.996 32.82l-.019.017-.019.019-28.076 28.076c-2.17 2.17-2.17 5.966 0 8.136l28.076 28.076c1.389 1.39 1.389 3.92 0 5.309l-25.505 25.505c-1.389 1.389-3.92 1.389-5.309 0L69.068 99.882c-2.17-2.17-5.966-2.17-8.136 0l-28.076 28.076c-1.39 1.389-3.92 1.389-5.309 0L2.042 102.453c-1.39-1.389-1.39-3.92 0-5.309l28.076-28.076c2.17-2.17 2.17-5.966 0-8.136L2.042 32.856c-1.39-1.39-1.39-3.92 0-5.309L27.547 2.042c1.39-1.39 3.92-1.39 5.309 0l28.076 28.076c2.17 2.17 5.966 2.17 8.136 0L97.144 2.042c1.39-1.39 3.92-1.39 5.309 0l25.505 25.505c1.609 1.609 1.552 3.91.038 5.272z" stroke="url(#paint0_linear_75_2072)" stroke-width="2"/><defs><linearGradient id="12w" x1="0" y1="65" x2="130.148" y2="65" gradientUnits="userSpaceOnUse"><stop stop-color="#F7941D"/><stop offset="1" stop-color="#27AAE1"/></linearGradient></defs></svg>