<svg width="18" height="18" fill="none" xmlns="http://www.w3.org/2000/svg"><path d="M17.719 9.25c0 2.156-.703 4.055-2.11 5.695-1.406 1.617-3.152 2.59-5.238 2.918v-6.082h2.04l.386-2.531H10.37V7.598c0-.891.469-1.336 1.406-1.336h1.09V4.117c-.656-.117-1.3-.176-1.933-.176-.68 0-1.266.13-1.758.387-.469.258-.844.645-1.125 1.16-.281.516-.422 1.125-.422 1.828V9.25H5.414v2.531H7.63v6.082c-2.086-.328-3.832-1.3-5.238-2.918C.984 13.305.28 11.406.28 9.25c0-2.414.844-4.465 2.531-6.152C4.524 1.387 6.587.53 9 .53c2.414 0 4.465.856 6.152 2.567 1.711 1.687 2.567 3.738 2.567 6.152z" fill="#00093C"/></svg>