<svg width="20" height="14" fill="none" xmlns="http://www.w3.org/2000/svg"><path d="M19.336 2.61c.07.28.129.632.176 1.054.07.422.117.844.14 1.266.024.398.035.773.035 1.125.024.351.036.644.036.879v.316c0 2.11-.13 3.668-.387 4.676a2.45 2.45 0 01-.633 1.054 2.437 2.437 0 01-1.09.633c-.445.117-1.289.211-2.531.282-1.242.046-2.379.082-3.41.105h-1.547c-4.008 0-6.504-.129-7.488-.387-.914-.258-1.489-.82-1.723-1.687-.117-.446-.21-1.055-.281-1.828a129.28 129.28 0 01-.106-2.004V7.25c0-2.086.13-3.633.387-4.64.117-.422.328-.786.633-1.09a2.437 2.437 0 011.09-.633C3.082.77 3.926.687 5.168.64 6.41.57 7.547.523 8.578.5h1.547c4.008 0 6.504.129 7.488.387.422.117.785.328 1.09.633.305.304.516.667.633 1.09zm-11.18 7.523l5.028-2.883-5.028-2.848v5.73z" fill="#00093C"/></svg>