<?xml version="1.0" encoding="utf-8"?><svg viewBox="0 0 352 351" xmlns="http://www.w3.org/2000/svg" xmlns:xlink="http://www.w3.org/1999/xlink"><style>:root>svg{display:none}:root>svg:target{display:block}</style><svg viewBox="0 0 10 7" id="arrow-icon" xmlns="http://www.w3.org/2000/svg"><path d="m1 1 4 4 4-4"/></svg><svg viewBox="0 0 120 120" id="circle-icon" xmlns="http://www.w3.org/2000/svg"><path d="M60 119C27.461 119 1 92.539 1 60S27.461 1 60 1s59 26.461 59 59c0 32.719-26.46 59-59 59Z"/></svg><svg viewBox="0 0 262 220" id="clue-icon" xmlns="http://www.w3.org/2000/svg"><path fill-rule="evenodd" clip-rule="evenodd" d="M21 1C9.954 1 1 9.954 1 21v150c0 11.046 8.954 20 20 20h120v25.839c0 1.677 1.94 2.609 3.249 1.561L178.5 191H241c11.046 0 20-8.954 20-20V21c0-11.046-8.954-20-20-20H21Z"/><path d="M141 191h1v-1h-1v1Zm3.249 27.4-.624-.78.624.78ZM178.5 191v-1h-.351l-.274.219.625.781ZM2 21C2 10.507 10.507 2 21 2V0C9.402 0 0 9.402 0 21h2Zm0 150V21H0v150h2Zm19 19c-10.493 0-19-8.507-19-19H0c0 11.598 9.402 21 21 21v-2Zm120 0H21v2h120v-2Zm-1 1v25.839h2V191h-2Zm0 25.839c0 2.515 2.91 3.914 4.874 2.342l-1.249-1.561a1 1 0 0 1-1.625-.781h-2Zm4.874 2.342 34.251-27.4-1.25-1.562-34.25 27.401 1.249 1.561ZM241 190h-62.5v2H241v-2Zm19-19c0 10.493-8.507 19-19 19v2c11.598 0 21-9.402 21-21h-2Zm0-150v150h2V21h-2ZM241 2c10.493 0 19 8.507 19 19h2c0-11.598-9.402-21-21-21v2ZM21 2h220V0H21v2Z"/></svg><svg viewBox="0 0 20 16" id="column-icon" xmlns="http://www.w3.org/2000/svg"><rect x="1" y="1" width="18" height="4.997" rx="1"/><rect x="1" y="9.972" width="18" height="5" rx="1"/></svg><svg viewBox="0 0 131 130" id="cross-icon" xmlns="http://www.w3.org/2000/svg"><path d="m127.996 32.82-.019.017-.019.019-28.076 28.076c-2.17 2.17-2.17 5.966 0 8.136l28.076 28.076c1.389 1.39 1.389 3.92 0 5.309l-25.505 25.505c-1.389 1.389-3.92 1.389-5.309 0L69.068 99.882c-2.17-2.17-5.966-2.17-8.136 0l-28.076 28.076c-1.39 1.389-3.92 1.389-5.309 0L2.042 102.453c-1.39-1.389-1.39-3.92 0-5.309l28.076-28.076c2.17-2.17 2.17-5.966 0-8.136L2.042 32.856c-1.39-1.39-1.39-3.92 0-5.309L27.547 2.042c1.39-1.39 3.92-1.39 5.309 0l28.076 28.076c2.17 2.17 5.966 2.17 8.136 0L97.144 2.042c1.39-1.39 3.92-1.39 5.309 0l25.505 25.505c1.609 1.609 1.552 3.91.038 5.272Z"/></svg><svg viewBox="0 0 18 18" id="fb-icon" xmlns="http://www.w3.org/2000/svg"><path d="M17.719 9.25c0 2.156-.703 4.055-2.11 5.695-1.406 1.617-3.152 2.59-5.238 2.918v-6.082h2.04l.386-2.531H10.37V7.598c0-.891.469-1.336 1.406-1.336h1.09V4.117c-.656-.117-1.3-.176-1.933-.176-.68 0-1.266.13-1.758.387-.469.258-.844.645-1.125 1.16-.281.516-.422 1.125-.422 1.828V9.25H5.414v2.531H7.63v6.082c-2.086-.328-3.832-1.3-5.238-2.918C.984 13.305.28 11.406.28 9.25c0-2.414.844-4.465 2.531-6.152C4.524 1.387 6.587.53 9 .53c2.414 0 4.465.856 6.152 2.567 1.711 1.687 2.567 3.738 2.567 6.152Z"/></svg><svg viewBox="0 0 16 17" id="inst-icon" xmlns="http://www.w3.org/2000/svg"><path d="M5.027 5.402c.797-.797 1.758-1.195 2.883-1.195s2.074.398 2.848 1.195c.797.774 1.195 1.723 1.195 2.848 0 1.125-.398 2.086-1.195 2.883-.774.773-1.723 1.16-2.848 1.16-1.125 0-2.086-.387-2.883-1.16-.773-.797-1.16-1.758-1.16-2.883s.387-2.074 1.16-2.848Zm1.02 4.711a2.54 2.54 0 0 0 1.863.774 2.54 2.54 0 0 0 1.863-.774 2.54 2.54 0 0 0 .774-1.863 2.54 2.54 0 0 0-.774-1.863 2.54 2.54 0 0 0-1.863-.774 2.54 2.54 0 0 0-1.863.774 2.54 2.54 0 0 0-.774 1.863c0 .727.258 1.348.774 1.863Zm6.715-6.715a.803.803 0 0 1 .281.633c0 .258-.094.48-.281.668a.802.802 0 0 1-.633.281.913.913 0 0 1-.668-.28.912.912 0 0 1-.281-.669c0-.258.093-.468.28-.633a.913.913 0 0 1 .669-.28c.258 0 .469.093.633.28Zm2.988 1.618c.023.632.035 1.71.035 3.234 0 1.523-.012 2.602-.035 3.234-.07 1.43-.504 2.543-1.3 3.34-.774.774-1.876 1.184-3.305 1.23-.633.048-1.711.071-3.235.071-1.523 0-2.601-.023-3.234-.07-1.43-.07-2.531-.492-3.305-1.266a3.394 3.394 0 0 1-.738-.984 5.772 5.772 0 0 1-.422-1.09 6.335 6.335 0 0 1-.106-1.23C.06 10.851.035 9.772.035 8.25s.024-2.613.07-3.27c.07-1.406.493-2.496 1.266-3.27C2.145.915 3.246.48 4.676.41 5.309.387 6.386.375 7.91.375s2.602.012 3.235.035c1.43.07 2.53.504 3.304 1.3.797.774 1.23 1.876 1.301 3.306Zm-1.688 7.875a3.83 3.83 0 0 0 .176-.704c.047-.304.082-.656.106-1.054.023-.422.035-.762.035-1.02V6.387c0-.258-.012-.586-.035-.985a9.957 9.957 0 0 0-.106-1.054 3.812 3.812 0 0 0-.175-.739 2.538 2.538 0 0 0-1.512-1.511 3.809 3.809 0 0 0-.739-.176 9.946 9.946 0 0 0-1.054-.106 17.371 17.371 0 0 0-.985-.035H6.047c-.258 0-.598.012-1.02.035-.398.024-.75.059-1.054.106a3.828 3.828 0 0 0-.703.176 2.537 2.537 0 0 0-1.512 1.511 3.81 3.81 0 0 0-.176.739 9.95 9.95 0 0 0-.105 1.054 17.37 17.37 0 0 0-.036.985v4.218c.024.352.047.657.07.915a9.316 9.316 0 0 0 .247 1.37c.304.727.808 1.231 1.512 1.512.187.07.421.13.703.176.304.047.656.082 1.054.106.422.023.75.035.985.035H9.774c.257 0 .585-.012.984-.035a9.932 9.932 0 0 0 1.055-.106c.304-.047.55-.105.738-.176.726-.304 1.23-.808 1.511-1.511Z"/></svg><svg viewBox="0 0 17 20" id="locations-icon" xmlns="http://www.w3.org/2000/svg"><path d="M16 8.5c0 2.828-1.87 5.454-3.947 7.47A24.861 24.861 0 0 1 8.5 18.817a24.856 24.856 0 0 1-3.554-2.847C2.87 13.955 1 11.328 1 8.5a7.5 7.5 0 1 1 15 0Z"/><circle cx="8.5" cy="7.5" r="2.5"/></svg><svg viewBox="0 0 10 13" id="shyvron-icon" xmlns="http://www.w3.org/2000/svg"><path d="M1.874.997 7.68 6.562l-5.807 5.404"/></svg><svg viewBox="0 0 16 14" id="tg-icon" xmlns="http://www.w3.org/2000/svg"><path d="m15.75 1.73-2.39 11.18c-.188.797-.622 1.008-1.301.633l-3.621-2.672L6.68 12.56c-.235.234-.48.351-.739.351l.282-3.691 6.715-6.047c.164-.164.164-.258 0-.281-.141-.047-.293-.012-.458.105L4.184 8.234.598 7.11c-.399-.117-.586-.293-.563-.527.024-.234.27-.434.738-.598L14.73.57c.352-.117.633-.07.844.141.211.187.27.527.176 1.02Z"/></svg><svg viewBox="0 0 99 82" id="triangle-icon" xmlns="http://www.w3.org/2000/svg"><path d="m48.082 1.972.005-.008c.748-1.248 2.537-1.33 3.454.026l46.12 75.363.005.008c.916 1.465-.146 3.367-1.729 3.367H3.675c-1.577 0-2.657-1.777-1.72-3.383L48.083 1.972Z"/></svg><svg viewBox="0 0 18 19" id="user-icon" xmlns="http://www.w3.org/2000/svg"><rect x="5.18" y="1" width="6.638" height="8.411" rx="3.319"/><path d="M1 15.411a3 3 0 0 1 3-3h9.28a3 3 0 0 1 3 3v.912a1 1 0 0 1-1 1H2a1 1 0 0 1-1-1v-.912Z"/></svg><svg viewBox="0 0 340 133" id="vector-1-icon" xmlns="http://www.w3.org/2000/svg"><path d="M.916 131.432 82 46.348h257V0"/></svg><svg viewBox="0 0 310 3" id="vector-2-icon" xmlns="http://www.w3.org/2000/svg"><path d="M.032 1.024h309.376"/></svg><svg viewBox="0 0 129 268" id="vector-3-icon" xmlns="http://www.w3.org/2000/svg"><path d="M1 0v140l126.589 126.589"/></svg><svg viewBox="0 0 74 81" id="vector-4-icon" xmlns="http://www.w3.org/2000/svg"><path d="M72.268.893 1 80"/></svg><svg viewBox="0 0 352 351" id="vector-5-icon" xmlns="http://www.w3.org/2000/svg"><path d="M1 0v180h180l170 170"/></svg><svg viewBox="0 0 20 14" id="youtube-icon" xmlns="http://www.w3.org/2000/svg"><path d="M19.336 2.61c.07.28.129.632.176 1.054.07.422.117.844.14 1.266.024.398.035.773.035 1.125.024.351.036.644.036.879v.316c0 2.11-.13 3.668-.387 4.676a2.45 2.45 0 0 1-.633 1.054 2.437 2.437 0 0 1-1.09.633c-.445.117-1.289.211-2.531.282-1.242.046-2.379.082-3.41.105h-1.547c-4.008 0-6.504-.129-7.488-.387-.914-.258-1.489-.82-1.723-1.687-.117-.446-.21-1.055-.281-1.828C.586 9.3.55 8.633.527 8.094V7.25c0-2.086.13-3.633.387-4.64.117-.422.328-.786.633-1.09a2.437 2.437 0 0 1 1.09-.633C3.082.77 3.926.687 5.168.64 6.41.57 7.547.523 8.578.5h1.547c4.008 0 6.504.129 7.488.387.422.117.785.328 1.09.633.305.304.516.667.633 1.09Zm-11.18 7.523 5.028-2.883-5.028-2.848v5.73Z"/></svg></svg>