<?xml version="1.0" encoding="utf-8"?><svg viewBox="0 0 352 351" xmlns="http://www.w3.org/2000/svg" xmlns:xlink="http://www.w3.org/1999/xlink"><style>:root>svg{display:none}:root>svg:target{display:block}</style><svg viewBox="0 0 10 7" id="arrow-icon" xmlns="http://www.w3.org/2000/svg"><path d="m1 1 4 4 4-4"/></svg><svg viewBox="0 0 120 120" id="circle-icon" xmlns="http://www.w3.org/2000/svg"><path d="M60 119C27.461 119 1 92.539 1 60S27.461 1 60 1s59 26.461 59 59c0 32.719-26.46 59-59 59Z"/></svg><svg viewBox="0 0 12 12" id="cloze-icon" xmlns="http://www.w3.org/2000/svg"><path d="m1 1 10 10M11 1 1 11"/></svg><svg viewBox="0 0 262 220" id="clue-icon" xmlns="http://www.w3.org/2000/svg"><path fill-rule="evenodd" clip-rule="evenodd" d="M21 1C9.954 1 1 9.954 1 21v150c0 11.046 8.954 20 20 20h120v25.839c0 1.677 1.94 2.609 3.249 1.561L178.5 191H241c11.046 0 20-8.954 20-20V21c0-11.046-8.954-20-20-20H21Z"/><path d="M141 191h1v-1h-1v1Zm3.249 27.4-.624-.78.624.78ZM178.5 191v-1h-.351l-.274.219.625.781ZM2 21C2 10.507 10.507 2 21 2V0C9.402 0 0 9.402 0 21h2Zm0 150V21H0v150h2Zm19 19c-10.493 0-19-8.507-19-19H0c0 11.598 9.402 21 21 21v-2Zm120 0H21v2h120v-2Zm-1 1v25.839h2V191h-2Zm0 25.839c0 2.515 2.91 3.914 4.874 2.342l-1.249-1.561a1 1 0 0 1-1.625-.781h-2Zm4.874 2.342 34.251-27.4-1.25-1.562-34.25 27.401 1.249 1.561ZM241 190h-62.5v2H241v-2Zm19-19c0 10.493-8.507 19-19 19v2c11.598 0 21-9.402 21-21h-2Zm0-150v150h2V21h-2ZM241 2c10.493 0 19 8.507 19 19h2c0-11.598-9.402-21-21-21v2ZM21 2h220V0H21v2Z"/></svg><svg viewBox="0 0 20 16" id="column-icon" xmlns="http://www.w3.org/2000/svg"><rect x="1" y="1" width="18" height="4.997" rx="1"/><rect x="1" y="9.972" width="18" height="5" rx="1"/></svg><svg viewBox="0 0 131 130" id="cross-icon" xmlns="http://www.w3.org/2000/svg"><path d="m127.996 32.82-.019.017-.019.019-28.076 28.076c-2.17 2.17-2.17 5.966 0 8.136l28.076 28.076c1.389 1.39 1.389 3.92 0 5.309l-25.505 25.505c-1.389 1.389-3.92 1.389-5.309 0L69.068 99.882c-2.17-2.17-5.966-2.17-8.136 0l-28.076 28.076c-1.39 1.389-3.92 1.389-5.309 0L2.042 102.453c-1.39-1.389-1.39-3.92 0-5.309l28.076-28.076c2.17-2.17 2.17-5.966 0-8.136L2.042 32.856c-1.39-1.39-1.39-3.92 0-5.309L27.547 2.042c1.39-1.39 3.92-1.39 5.309 0l28.076 28.076c2.17 2.17 5.966 2.17 8.136 0L97.144 2.042c1.39-1.39 3.92-1.39 5.309 0l25.505 25.505c1.609 1.609 1.552 3.91.038 5.272Z"/></svg><svg viewBox="0 0 18 18" id="fb-icon" xmlns="http://www.w3.org/2000/svg"><path d="M17.719 9.25c0 2.156-.703 4.055-2.11 5.695-1.406 1.617-3.152 2.59-5.238 2.918v-6.082h2.04l.386-2.531H10.37V7.598c0-.891.469-1.336 1.406-1.336h1.09V4.117c-.656-.117-1.3-.176-1.933-.176-.68 0-1.266.13-1.758.387-.469.258-.844.645-1.125 1.16-.281.516-.422 1.125-.422 1.828V9.25H5.414v2.531H7.63v6.082c-2.086-.328-3.832-1.3-5.238-2.918C.984 13.305.28 11.406.28 9.25c0-2.414.844-4.465 2.531-6.152C4.524 1.387 6.587.53 9 .53c2.414 0 4.465.856 6.152 2.567 1.711 1.687 2.567 3.738 2.567 6.152Z"/></svg><svg viewBox="0 0 16 17" id="inst-icon" xmlns="http://www.w3.org/2000/svg"><path d="M5.027 5.402c.797-.797 1.758-1.195 2.883-1.195s2.074.398 2.848 1.195c.797.774 1.195 1.723 1.195 2.848 0 1.125-.398 2.086-1.195 2.883-.774.773-1.723 1.16-2.848 1.16-1.125 0-2.086-.387-2.883-1.16-.773-.797-1.16-1.758-1.16-2.883s.387-2.074 1.16-2.848Zm1.02 4.711a2.54 2.54 0 0 0 1.863.774 2.54 2.54 0 0 0 1.863-.774 2.54 2.54 0 0 0 .774-1.863 2.54 2.54 0 0 0-.774-1.863 2.54 2.54 0 0 0-1.863-.774 2.54 2.54 0 0 0-1.863.774 2.54 2.54 0 0 0-.774 1.863c0 .727.258 1.348.774 1.863Zm6.715-6.715a.803.803 0 0 1 .281.633c0 .258-.094.48-.281.668a.802.802 0 0 1-.633.281.913.913 0 0 1-.668-.28.912.912 0 0 1-.281-.669c0-.258.093-.468.28-.633a.913.913 0 0 1 .669-.28c.258 0 .469.093.633.28Zm2.988 1.618c.023.632.035 1.71.035 3.234 0 1.523-.012 2.602-.035 3.234-.07 1.43-.504 2.543-1.3 3.34-.774.774-1.876 1.184-3.305 1.23-.633.048-1.711.071-3.235.071-1.523 0-2.601-.023-3.234-.07-1.43-.07-2.531-.492-3.305-1.266a3.394 3.394 0 0 1-.738-.984 5.772 5.772 0 0 1-.422-1.09 6.335 6.335 0 0 1-.106-1.23C.06 10.851.035 9.772.035 8.25s.024-2.613.07-3.27c.07-1.406.493-2.496 1.266-3.27C2.145.915 3.246.48 4.676.41 5.309.387 6.386.375 7.91.375s2.602.012 3.235.035c1.43.07 2.53.504 3.304 1.3.797.774 1.23 1.876 1.301 3.306Zm-1.688 7.875a3.83 3.83 0 0 0 .176-.704c.047-.304.082-.656.106-1.054.023-.422.035-.762.035-1.02V6.387c0-.258-.012-.586-.035-.985a9.957 9.957 0 0 0-.106-1.054 3.812 3.812 0 0 0-.175-.739 2.538 2.538 0 0 0-1.512-1.511 3.809 3.809 0 0 0-.739-.176 9.946 9.946 0 0 0-1.054-.106 17.371 17.371 0 0 0-.985-.035H6.047c-.258 0-.598.012-1.02.035-.398.024-.75.059-1.054.106a3.828 3.828 0 0 0-.703.176 2.537 2.537 0 0 0-1.512 1.511 3.81 3.81 0 0 0-.176.739 9.95 9.95 0 0 0-.105 1.054 17.37 17.37 0 0 0-.036.985v4.218c.024.352.047.657.07.915a9.316 9.316 0 0 0 .247 1.37c.304.727.808 1.231 1.512 1.512.187.07.421.13.703.176.304.047.656.082 1.054.106.422.023.75.035.985.035H9.774c.257 0 .585-.012.984-.035a9.932 9.932 0 0 0 1.055-.106c.304-.047.55-.105.738-.176.726-.304 1.23-.808 1.511-1.511Z"/></svg><svg viewBox="0 0 17 20" id="locations-icon" xmlns="http://www.w3.org/2000/svg"><path d="M16 8.5c0 2.828-1.87 5.454-3.947 7.47A24.861 24.861 0 0 1 8.5 18.817a24.856 24.856 0 0 1-3.554-2.847C2.87 13.955 1 11.328 1 8.5a7.5 7.5 0 1 1 15 0Z"/><circle cx="8.5" cy="7.5" r="2.5"/></svg><svg viewBox="0 0 100 71" id="logo-icon" xmlns="http://www.w3.org/2000/svg"><path d="M16.467 70.646C7.385 70.646 0 63.261 0 54.18c0-9.082 7.385-16.467 16.467-16.467 9.082 0 16.467 7.385 16.467 16.467 0 9.132-7.385 16.467-16.467 16.467Z"/><path d="M16.467 70.646C7.385 70.646 0 63.261 0 54.18c0-9.082 7.385-16.467 16.467-16.467 9.082 0 16.467 7.385 16.467 16.467 0 9.132-7.385 16.467-16.467 16.467ZM55.39 1.834 37.525 31.025c-.499.849.05 1.897.998 1.897h35.729c.948 0 1.497-1.098.998-1.897L57.386 1.834c-.5-.749-1.547-.749-1.997 0ZM32.585 6.774 26.147.337c-.449-.45-1.247-.45-1.696 0l-7.086 7.086c-.449.449-1.247.449-1.696 0L8.582.337c-.45-.45-1.248-.45-1.697 0L.449 6.774c-.45.45-.45 1.247 0 1.697l7.086 7.085c.449.45.449 1.248 0 1.697L.449 24.339c-.45.449-.45 1.247 0 1.697l6.437 6.437c.45.449 1.248.449 1.697 0l7.085-7.086c.45-.45 1.248-.45 1.697 0l7.086 7.086c.449.449 1.247.449 1.697 0l6.437-6.438c.449-.449.449-1.247 0-1.696l-7.086-7.086c-.45-.45-.45-1.247 0-1.697l7.086-7.085c.499-.45.499-1.198 0-1.697ZM40.669 49.09v2.095h3.642v1.447H40.67v2.844h-1.797v-7.834h5.888v1.447H40.67ZM47.206 54.678c-.599-.599-.948-1.497-.948-2.645v-4.39h1.796v4.29c0 1.398.599 2.096 1.747 2.096.548 0 .998-.15 1.297-.499.3-.349.45-.848.45-1.596v-4.292h1.795v4.391c0 1.148-.299 2.046-.948 2.645-.598.599-1.497.948-2.594.948-1.098 0-1.996-.35-2.595-.948ZM56.936 49.14h-2.495v-1.498h6.786v1.497h-2.494v6.337h-1.797V49.14ZM63.273 54.678c-.599-.599-.948-1.497-.948-2.645v-4.39h1.797v4.29c0 1.398.598 2.096 1.746 2.096.549 0 .998-.15 1.297-.499.3-.349.45-.848.45-1.596v-4.292h1.796v4.391c0 1.148-.3 2.046-.948 2.645-.599.599-1.497.948-2.595.948s-1.946-.35-2.595-.948ZM76.497 55.477 75 53.28h-1.697v2.196h-1.796v-7.785H74.9c.699 0 1.298.1 1.797.35.499.25.898.549 1.197.998.25.399.4.948.4 1.497 0 .599-.15 1.098-.4 1.497-.3.399-.698.748-1.197.948l1.746 2.495h-1.946Zm-.449-5.988c-.3-.25-.699-.35-1.248-.35h-1.496v2.745H74.8c.55 0 .949-.1 1.248-.35.3-.249.4-.548.4-.997.05-.5-.1-.799-.4-1.048ZM86.128 54.03v1.446H80.09v-7.834h5.888v1.447h-4.092v1.697h3.593v1.447h-3.593v1.796h4.242ZM44.012 68.251h-3.643l-.698 1.697h-1.847l3.493-7.785h1.797l3.493 7.785H44.71l-.699-1.697Zm-.549-1.347-1.247-2.994-1.248 2.994h2.495ZM49.202 69.549a3.801 3.801 0 0 1-1.497-1.448 4.095 4.095 0 0 1-.55-2.095c0-.749.2-1.448.55-2.096.349-.6.898-1.098 1.497-1.447.648-.35 1.347-.5 2.145-.5.699 0 1.298.1 1.847.35.549.25.998.599 1.397 1.048l-1.148 1.048c-.549-.6-1.197-.899-1.946-.899-.499 0-.898.1-1.297.3-.4.2-.699.499-.899.898-.2.4-.299.799-.299 1.298s.1.898.3 1.297c.2.4.498.699.898.898.399.2.798.3 1.297.3.798 0 1.447-.3 1.946-.949l1.148 1.048c-.35.45-.848.799-1.397 1.048-.55.25-1.148.35-1.847.35-.748.05-1.497-.1-2.145-.45ZM61.128 68.251h-3.643l-.699 1.697H54.94l3.493-7.785h1.797l3.492 7.785h-1.896l-.698-1.697Zm-.55-1.347-1.247-2.994-1.247 2.994h2.495ZM64.87 62.113h3.543c.849 0 1.597.15 2.246.5.648.299 1.147.798 1.497 1.347.35.598.549 1.247.549 2.045 0 .799-.2 1.448-.55 2.046A3.277 3.277 0 0 1 70.66 69.4a5.31 5.31 0 0 1-2.246.499H64.87v-7.785Zm3.444 6.338c.798 0 1.397-.2 1.846-.65.449-.448.698-1.047.698-1.746 0-.748-.25-1.347-.698-1.746-.45-.45-1.098-.649-1.846-.649h-1.647v4.84h1.647v-.05ZM80.44 68.5v1.448H74.4v-7.835h5.888v1.447h-4.091v1.697h3.642v1.397h-3.642v1.847h4.241ZM89.321 69.948v-4.691l-2.295 3.842h-.798l-2.296-3.742v4.59h-1.696v-7.834h1.497l2.894 4.84 2.894-4.84h1.497v7.835h-1.697ZM96.956 67.153v2.795H95.16v-2.795l-3.044-5.04h1.946l2.096 3.493 2.046-3.493H100l-3.044 5.04Z"/></svg><svg version="1.0" viewBox="0 0 189 189" id="safari-pinned-tab" xmlns="http://www.w3.org/2000/svg"><path d="M108.8 3.6c-3.2.7-7.7 2.3-10 3.5-4.2 2.2-9.2 2.2-19.5.3-4.7-.9-4.4 1.9.7 6.6l3.9 3.6-13.2 13.2C57.6 43.9 57.5 44 53.7 43.3c-6-.9-12.2 2.1-20.5 10.1S22.5 64.9 21.6 70.2c-1.4 7.8 3.9 17.4 11.1 20.4 3.8 1.6 11 1.8 15 .4 2.5-.9 2.3-.6-1.6 3-4.2 3.8-9.2 6-13.9 6-3.4 0-9.3-2.7-12.4-5.7-1.5-1.5-3-2.4-3.4-2.1-.3.3-1.2 4.5-2 9.3C8.8 133.8 33.5 163 66.5 163c15 0 26.1-4.7 38.2-16.3l8.3-7.9 13.2-.2c15-.1 17.6-1 23.2-7.9 2.8-3.5 3.1-4.5 3.1-11.1 0-6.4-.3-7.7-2.7-10.8l-2.7-3.6 9.4-10C170 80.7 174.4 70.9 174.3 55c0-12.8-3.3-22.6-10.9-32.6-2.7-3.5-3.3-4.9-2.3-5.3 2-.6 8.9-7.7 8.9-9.1 0-.8-1-1-3.2-.6-1.8.3-6.5.9-10.5 1.2-6.4.6-7.9.4-13.5-1.9-11.7-4.9-22.6-5.9-34-3.1zm11.1 16.2 3.9 2 4.8-2.4c2.6-1.3 5.9-2.4 7.3-2.4 11.1 0 23.9 11.9 28.2 26.2 6.2 20.3-2.9 41.1-22 50.6-7.2 3.6-7.9 3.7-18.1 3.7-10.2 0-10.9-.1-18.2-3.8-8.9-4.4-16.1-11.6-20.5-20.5-2.5-5.2-2.8-6.7-2.8-17.2 0-10.4.3-12 2.7-17.2 1.5-3.2 3.9-7.4 5.4-9.3 3.1-4.1 11.2-10.3 15.2-11.6 3.8-1.2 9.6-.4 14.1 1.9z"/><path d="M100.8 33.7c-1.3.3-1.5 1.2-1.1 3.9.7 4.2-1 6.4-4.8 6.4-3.3 0-3.5.9-1.4 5 3.3 6.4 10.9 8 16.4 3.4 3.9-3.2 4.9-8 2.6-12.7-2-4.4-7.4-7.1-11.7-6zM142.3 33.7c-1.8.4-2.1.9-1.7 3.2.8 4-1.1 7.1-4.2 7.1-2.3 0-2.5.3-2 2.7 1.1 4.4 6 8.3 10.5 8.3 6.7 0 12.2-6.9 10.6-13.3-1.3-5.1-7.7-9-13.2-8zM118.4 51.1c-2.5 1.3-5.4 5.9-5.4 8.8 0 1.9 3.9 5.5 8.8 8 2 1.1 2.9.8 6.8-1.6 2.4-1.5 4.7-3.8 5-5.1.8-2.9-1.3-7.8-4-9.7-2.3-1.7-8.1-1.9-11.2-.4z"/></svg><svg viewBox="0 0 10 13" id="shyvron-icon" xmlns="http://www.w3.org/2000/svg"><path d="M1.874.997 7.68 6.562l-5.807 5.404"/></svg><svg viewBox="0 0 16 14" id="tg-icon" xmlns="http://www.w3.org/2000/svg"><path d="m15.75 1.73-2.39 11.18c-.188.797-.622 1.008-1.301.633l-3.621-2.672L6.68 12.56c-.235.234-.48.351-.739.351l.282-3.691 6.715-6.047c.164-.164.164-.258 0-.281-.141-.047-.293-.012-.458.105L4.184 8.234.598 7.11c-.399-.117-.586-.293-.563-.527.024-.234.27-.434.738-.598L14.73.57c.352-.117.633-.07.844.141.211.187.27.527.176 1.02Z"/></svg><svg viewBox="0 0 99 82" id="triangle-icon" xmlns="http://www.w3.org/2000/svg"><path d="m48.082 1.972.005-.008c.748-1.248 2.537-1.33 3.454.026l46.12 75.363.005.008c.916 1.465-.146 3.367-1.729 3.367H3.675c-1.577 0-2.657-1.777-1.72-3.383L48.083 1.972Z"/></svg><svg viewBox="0 0 18 19" id="user-icon" xmlns="http://www.w3.org/2000/svg"><rect x="5.18" y="1" width="6.638" height="8.411" rx="3.319"/><path d="M1 15.411a3 3 0 0 1 3-3h9.28a3 3 0 0 1 3 3v.912a1 1 0 0 1-1 1H2a1 1 0 0 1-1-1v-.912Z"/></svg><svg viewBox="0 0 340 133" id="vector-1-icon" xmlns="http://www.w3.org/2000/svg"><path d="M.916 131.432 82 46.348h257V0"/></svg><svg viewBox="0 0 310 3" id="vector-2-icon" xmlns="http://www.w3.org/2000/svg"><path d="M.032 1.024h309.376"/></svg><svg viewBox="0 0 129 268" id="vector-3-icon" xmlns="http://www.w3.org/2000/svg"><path d="M1 0v140l126.589 126.589"/></svg><svg viewBox="0 0 74 81" id="vector-4-icon" xmlns="http://www.w3.org/2000/svg"><path d="M72.268.893 1 80"/></svg><svg viewBox="0 0 352 351" id="vector-5-icon" xmlns="http://www.w3.org/2000/svg"><path d="M1 0v180h180l170 170"/></svg><svg viewBox="0 0 20 14" id="youtube-icon" xmlns="http://www.w3.org/2000/svg"><path d="M19.336 2.61c.07.28.129.632.176 1.054.07.422.117.844.14 1.266.024.398.035.773.035 1.125.024.351.036.644.036.879v.316c0 2.11-.13 3.668-.387 4.676a2.45 2.45 0 0 1-.633 1.054 2.437 2.437 0 0 1-1.09.633c-.445.117-1.289.211-2.531.282-1.242.046-2.379.082-3.41.105h-1.547c-4.008 0-6.504-.129-7.488-.387-.914-.258-1.489-.82-1.723-1.687-.117-.446-.21-1.055-.281-1.828C.586 9.3.55 8.633.527 8.094V7.25c0-2.086.13-3.633.387-4.64.117-.422.328-.786.633-1.09a2.437 2.437 0 0 1 1.09-.633C3.082.77 3.926.687 5.168.64 6.41.57 7.547.523 8.578.5h1.547c4.008 0 6.504.129 7.488.387.422.117.785.328 1.09.633.305.304.516.667.633 1.09Zm-11.18 7.523 5.028-2.883-5.028-2.848v5.73Z"/></svg></svg>