<?xml version="1.0" standalone="no"?>
<!DOCTYPE svg PUBLIC "-//W3C//DTD SVG 20010904//EN"
 "http://www.w3.org/TR/2001/REC-SVG-20010904/DTD/svg10.dtd">
<svg version="1.0" xmlns="http://www.w3.org/2000/svg"
 width="189.000000pt" height="189.000000pt" viewBox="0 0 189.000000 189.000000"
 preserveAspectRatio="xMidYMid meet">
<metadata>
Created by potrace 1.14, written by Peter Selinger 2001-2017
</metadata>
<g transform="translate(0.000000,189.000000) scale(0.100000,-0.100000)"
fill="#000000" stroke="none">
<path d="M1088 1854 c-32 -7 -77 -23 -100 -35 -42 -22 -92 -22 -195 -3 -47 9
-44 -19 7 -66 l39 -36 -132 -132 c-131 -131 -132 -132 -170 -125 -60 9 -122
-21 -205 -101 -83 -80 -107 -115 -116 -168 -14 -78 39 -174 111 -204 38 -16
110 -18 150 -4 25 9 23 6 -16 -30 -42 -38 -92 -60 -139 -60 -34 0 -93 27 -124
57 -15 15 -30 24 -34 21 -3 -3 -12 -45 -20 -93 -56 -323 191 -615 521 -615
150 0 261 47 382 163 l83 79 132 2 c150 1 176 10 232 79 28 35 31 45 31 111 0
64 -3 77 -27 108 l-27 36 94 100 c135 145 179 243 178 402 0 128 -33 226 -109
326 -27 35 -33 49 -23 53 20 6 89 77 89 91 0 8 -10 10 -32 6 -18 -3 -65 -9
-105 -12 -64 -6 -79 -4 -135 19 -117 49 -226 59 -340 31z m111 -162 l39 -20
48 24 c26 13 59 24 73 24 111 0 239 -119 282 -262 62 -203 -29 -411 -220 -506
-72 -36 -79 -37 -181 -37 -102 0 -109 1 -182 38 -89 44 -161 116 -205 205 -25
52 -28 67 -28 172 0 104 3 120 27 172 15 32 39 74 54 93 31 41 112 103 152
116 38 12 96 4 141 -19z"/>
<path d="M1008 1553 c-13 -3 -15 -12 -11 -39 7 -42 -10 -64 -48 -64 -33 0 -35
-9 -14 -50 33 -64 109 -80 164 -34 39 32 49 80 26 127 -20 44 -74 71 -117 60z"/>
<path d="M1423 1553 c-18 -4 -21 -9 -17 -32 8 -40 -11 -71 -42 -71 -23 0 -25
-3 -20 -27 11 -44 60 -83 105 -83 67 0 122 69 106 133 -13 51 -77 90 -132 80z"/>
<path d="M1184 1379 c-25 -13 -54 -59 -54 -88 0 -19 39 -55 88 -80 20 -11 29
-8 68 16 24 15 47 38 50 51 8 29 -13 78 -40 97 -23 17 -81 19 -112 4z"/>
</g>
</svg>
